<svg width="23" height="26" viewBox="0 0 23 26" fill="none" xmlns="http://www.w3.org/2000/svg">
<path d="M10.7198 12.4199L0.0698242 23.7199C0.186167 24.1473 0.399199 24.5423 0.692463 24.8742C0.985727 25.2062 1.35137 25.4663 1.76116 25.6345C2.17095 25.8026 2.61391 25.8744 3.05583 25.8441C3.49774 25.8138 3.92679 25.6824 4.30982 25.4599V25.4599L16.3098 18.5399L10.7198 12.4199Z" fill="#EA4335"/>
<path d="M21.4902 10.5L16.3102 7.5L10.4902 12.69L16.3302 18.54L21.4802 15.54C21.938 15.2948 22.3207 14.93 22.5875 14.4845C22.8543 14.0389 22.9952 13.5293 22.9952 13.01C22.9952 12.4907 22.8543 11.9811 22.5875 11.5355C22.3207 11.09 21.938 10.7252 21.4802 10.48L21.4902 10.5Z" fill="#FBBC04"/>
<path d="M0.0700493 2.28027C0.017166 2.51648 -0.00634496 2.75831 4.95699e-05 3.00027V23.0003C0.00179484 23.2502 0.0353995 23.4989 0.10005 23.7403L11.1 12.7403L0.0700493 2.28027Z" fill="#4285F4"/>
<path d="M10.8 12.9996L16.31 7.48965L4.31004 0.549648C3.8592 0.281649 3.34451 0.140022 2.82004 0.139648C2.1874 0.141461 1.57283 0.350817 1.07065 0.735584C0.568461 1.12035 0.206406 1.65927 0.0400391 2.26965V2.26965L10.8 12.9996Z" fill="#34A853"/>
</svg>
