<svg width="24" height="24" viewBox="0 0 24 24" fill="none" xmlns="http://www.w3.org/2000/svg">
<path d="M12.3081 15.471L12.3841 14.407L13.3111 13.878C14.2011 13.3622 15.0189 12.7307 15.7431 12C18.3831 9.35898 19.1891 6.25398 18.2181 5.28198C17.2461 4.31198 14.1411 5.11598 11.5001 7.75698C10.7401 8.51698 10.1031 9.34698 9.62205 10.189L9.09205 11.116L8.02905 11.192C7.15671 11.2532 6.32893 11.6004 5.67405 12.18C6.92401 12.73 8.06043 13.5083 9.02505 14.475C10.0051 15.455 10.7771 16.592 11.3201 17.826C11.8996 17.1711 12.2469 16.3433 12.3081 15.471ZM9.33505 18.3C9.13394 18.5734 8.9123 18.8312 8.67205 19.071C7.50005 20.243 5.73205 20.596 3.36805 20.131C2.90405 17.768 3.25805 16 4.42805 14.828C4.67605 14.582 4.93405 14.36 5.20005 14.165C4.38026 13.7645 3.50419 13.4914 2.60205 13.355C2.89249 12.4433 3.39766 11.6147 4.07505 10.939C5.09345 9.91804 6.44661 9.2997 7.88505 9.19798C8.48884 8.15316 9.22863 7.19311 10.0851 6.34298C13.4051 3.02298 17.6791 1.91598 19.6321 3.86798C21.5841 5.82098 20.4761 10.095 17.1571 13.414C16.3069 14.2704 15.3469 15.0102 14.3021 15.614C14.2003 17.0524 13.582 18.4056 12.5611 19.424C11.8859 20.1023 11.0571 20.6079 10.1451 20.898C10.0087 19.9958 9.73554 19.1198 9.33505 18.3V18.3ZM7.61005 15.89C7.44903 15.7286 7.26747 15.589 7.07005 15.475C6.63805 15.625 6.13005 15.955 5.66505 16.419C5.44605 16.639 5.17805 17.378 5.17505 18.324C6.12105 18.321 6.86305 18.05 7.08005 17.834C7.54505 17.368 7.87505 16.861 8.02405 16.429C7.9103 16.2316 7.77111 16.0501 7.61005 15.889V15.89ZM15.3881 8.10998C15.2904 8.01825 15.2121 7.90783 15.158 7.78527C15.1038 7.66271 15.0748 7.53052 15.0727 7.39654C15.0706 7.26256 15.0955 7.12953 15.1458 7.00535C15.1962 6.88117 15.271 6.76837 15.3657 6.67365C15.4605 6.57894 15.5734 6.50424 15.6976 6.45399C15.8218 6.40374 15.9549 6.37897 16.0888 6.38114C16.2228 6.38332 16.355 6.4124 16.4775 6.46665C16.6 6.52091 16.7104 6.59923 16.8021 6.69698C16.9745 6.88714 17.0672 7.13633 17.0609 7.39295C17.0547 7.64957 16.95 7.89397 16.7686 8.07555C16.5871 8.25712 16.3428 8.36197 16.0862 8.36838C15.8296 8.37479 15.5803 8.28227 15.3901 8.10998H15.3881Z" fill="#0F172A"/>
</svg>
