<svg width="65" height="79" viewBox="0 0 65 79" fill="none" xmlns="http://www.w3.org/2000/svg">
<path opacity="0.5" d="M46.9282 17.0711C53.2279 10.7714 63.9993 15.2331 63.9993 24.1421L63.9993 43C63.9993 48.5228 59.5221 53 53.9993 53L35.1414 53C26.2324 53 21.7707 42.2286 28.0703 35.9289L46.9282 17.0711Z" fill="#15803D"/>
<path d="M53.6667 68.3332L11 54.9998M53.6667 68.3332H11V54.9998L53.6667 68.3332ZM53.6667 68.3332V46.9998C53.6667 35.2178 44.1155 25.6665 32.3333 25.6665C30.2152 25.6665 28.1693 25.9752 26.2381 26.5499C17.4259 29.1726 11 37.3358 11 46.9998V54.9998L53.6667 68.3332Z" stroke="#78350F" stroke-width="1.5" stroke-linecap="round" stroke-linejoin="round"/>
<path d="M43 39V41.6667" stroke="#78350F" stroke-width="1.5" stroke-linecap="round"/>
<path d="M32.3333 36.3335V39.0002" stroke="#78350F" stroke-width="1.5" stroke-linecap="round"/>
<path d="M21.6665 33.6665V36.3332" stroke="#78350F" stroke-width="1.5" stroke-linecap="round"/>
</svg>
