<svg width="88" height="65" viewBox="0 0 88 65" fill="none" xmlns="http://www.w3.org/2000/svg">
<path opacity="0.5" d="M27.1586 20.6502C20.0158 13.0298 25.0746 0 35.176 0H76.6388C86.7401 0 91.7989 13.0298 84.6561 20.6502L63.9248 42.7681C59.4969 47.4921 52.3179 47.4922 47.8899 42.7681L27.1586 20.6502Z" fill="#0369A1"/>
<path d="M12.3237 12.3875H44.2764C44.2764 12.3875 41.6138 55.1519 28.3002 55.1519C21.7964 55.1519 17.8343 44.9468 15.4827 34.5069C13.0204 23.5759 12.3237 12.3875 12.3237 12.3875Z" stroke="#78350F" stroke-width="1.5" stroke-linecap="round" stroke-linejoin="round"/>
<path d="M44.2768 12.3874C44.2768 12.3874 47.062 9.21746 49.3769 9.16158C53.9122 9.05198 54.7507 12.3874 54.7507 12.3874C55.6384 14.3536 56.3483 19.4656 52.0881 24.1845C47.8276 28.9033 43.0586 33.0323 41.1177 34.5069" stroke="#78350F" stroke-width="1.5" stroke-linecap="round" stroke-linejoin="round"/>
<path d="M12.3242 12.3875C12.3242 12.3875 9.42218 9.18154 7.04714 9.1617C2.51178 9.12396 1.67331 12.3875 1.67331 12.3875C0.78572 14.3537 0.0756669 19.4658 4.33602 24.1847C8.59641 28.9035 13.5425 33.0324 15.4831 34.5072" stroke="#78350F" stroke-width="1.5" stroke-linecap="round" stroke-linejoin="round"/>
<path d="M17.6494 64.0001C17.6494 58.1015 28.3002 55.1521 28.3002 55.1521C28.3002 55.1521 38.9512 58.1015 38.9512 64.0001H17.6494Z" stroke="#78350F" stroke-width="1.5" stroke-linecap="round" stroke-linejoin="round"/>
</svg>
