<svg width="88" height="65" viewBox="0 0 88 65" fill="none" xmlns="http://www.w3.org/2000/svg">
<path opacity="0.5" d="M59.9776 3.48151C70.3187 -3.95572 88.0002 1.31162 88.0002 11.8293V34.0924C88.0002 40.6124 80.6508 45.8981 71.585 45.8981H40.6293C26.005 45.8981 18.681 33.1817 29.0219 25.7445L59.9776 3.48151Z" fill="#15803D"/>
<path d="M71.0384 63.9999L1 48.2589M71.0384 63.9999H1V48.2589M71.0384 63.9999V38.8143C71.0384 24.9049 55.3599 13.6289 36.0191 13.6289C32.5422 13.6289 29.1838 13.9933 26.0137 14.6718C11.5483 17.7681 1 27.4053 1 38.8143V48.2589" stroke="#78350F" stroke-width="1.5" stroke-linecap="round" stroke-linejoin="round"/>
<path d="M53.5288 29.3701V32.5183" stroke="#78350F" stroke-width="1.5" stroke-linecap="round"/>
<path d="M36.0195 26.2222V29.3704" stroke="#78350F" stroke-width="1.5" stroke-linecap="round"/>
</svg>
