<svg width="99" height="106" viewBox="0 0 99 106" fill="none" xmlns="http://www.w3.org/2000/svg">
<path opacity="0.5" d="M31.0711 59.4973C24.7714 53.1977 29.2331 42.4263 38.1421 42.4263H74.7107C83.6197 42.4263 88.0814 53.1977 81.7817 59.4973L63.4975 77.7816C59.5922 81.6868 53.2606 81.6869 49.3553 77.7816L31.0711 59.4973Z" fill="#0369A1"/>
<path d="M17.9875 52.6667H46.1685C46.1685 52.6667 43.8202 88.019 32.0781 88.019C26.342 88.019 22.8476 79.5827 20.7736 70.9523C18.6019 61.9159 17.9875 52.6667 17.9875 52.6667Z" stroke="#78350F" stroke-width="1.5" stroke-linecap="round" stroke-linejoin="round"/>
<path d="M46.1685 52.6667C46.1685 52.6667 48.625 50.0462 50.6666 50C54.6666 49.9094 55.4061 52.6667 55.4061 52.6667C56.189 54.2921 56.8151 58.5181 53.0578 62.4191C49.3002 66.32 45.0941 69.7333 43.3823 70.9523" stroke="#78350F" stroke-width="1.5" stroke-linecap="round" stroke-linejoin="round"/>
<path d="M17.9873 52.6667C17.9873 52.6667 15.4278 50.0164 13.3331 50C9.33309 49.9688 8.59359 52.6667 8.59359 52.6667C7.81077 54.2921 7.18453 58.5181 10.942 62.4191C14.6995 66.32 19.0618 69.7333 20.7733 70.9525" stroke="#78350F" stroke-width="1.5" stroke-linecap="round" stroke-linejoin="round"/>
<path d="M22.6843 95.3334C22.6843 90.4572 32.0779 88.019 32.0779 88.019C32.0779 88.019 41.4717 90.4572 41.4717 95.3334H22.6843Z" stroke="#78350F" stroke-width="1.5" stroke-linecap="round" stroke-linejoin="round"/>
</svg>
